<svg width="12" height="10" viewBox="0 0 12 10" fill="none" xmlns="http://www.w3.org/2000/svg">
<path d="M11.1951 2.61254C10.6585 1.84647 9.93076 1.23997 9.01155 0.792905C8.09221 0.345817 7.08857 0.12233 5.9999 0.12233C4.91138 0.12233 3.9074 0.345885 2.98825 0.792905C2.06897 1.23995 1.34122 1.84647 0.80469 2.61254C0.268239 3.37859 0 4.21512 0 5.12211C0 6.21162 0.38144 7.19132 1.14451 8.06149C1.9075 8.93172 2.89317 9.53389 4.10143 9.86806C4.24208 9.88981 4.3462 9.87451 4.41389 9.82255C4.48162 9.77051 4.51544 9.70534 4.51544 9.62731C4.51544 9.61429 4.51409 9.49716 4.5115 9.27577C4.50881 9.05438 4.50756 8.86124 4.50756 8.69645L4.32786 8.72235C4.21329 8.73984 4.06876 8.74725 3.89427 8.74515C3.71986 8.74312 3.5388 8.72789 3.35133 8.69957C3.16379 8.6715 2.98935 8.6064 2.82788 8.5044C2.66649 8.40241 2.55192 8.2689 2.4842 8.10408L2.40608 7.95427C2.35401 7.85453 2.27203 7.74374 2.16003 7.62229C2.04804 7.50073 1.93478 7.41832 1.82021 7.37493L1.76551 7.3423C1.72907 7.32061 1.69524 7.29446 1.66397 7.26411C1.63272 7.23376 1.60933 7.20339 1.5937 7.17297C1.57805 7.14253 1.59102 7.11756 1.63275 7.09797C1.67448 7.07838 1.74989 7.06888 1.85931 7.06888L2.0155 7.08833C2.11967 7.10572 2.24852 7.15769 2.40222 7.24455C2.55584 7.33133 2.68212 7.44416 2.78109 7.58298C2.90094 7.76098 3.04533 7.89661 3.21468 7.98994C3.3839 8.08327 3.5545 8.12985 3.72634 8.12985C3.89818 8.12985 4.0466 8.119 4.17165 8.0974C4.29656 8.0757 4.41375 8.04306 4.52318 7.99969C4.57005 7.70878 4.69767 7.48529 4.90593 7.32907C4.6091 7.30308 4.34223 7.26393 4.10518 7.21187C3.86827 7.15974 3.62346 7.07515 3.3709 6.95785C3.1182 6.84071 2.90857 6.69526 2.74196 6.52173C2.57532 6.34811 2.43856 6.12018 2.33187 5.83813C2.22513 5.55598 2.17174 5.23049 2.17174 4.8616C2.17174 4.33634 2.37751 3.88937 2.78897 3.52042C2.59623 3.12553 2.61442 2.68284 2.84361 2.19241C2.99466 2.1533 3.21865 2.18265 3.51548 2.28026C3.81237 2.37793 4.02974 2.46159 4.16782 2.53095C4.30589 2.6003 4.41652 2.65906 4.49987 2.70672C4.98433 2.59391 5.48428 2.5375 5.99985 2.5375C6.51542 2.5375 7.01548 2.59391 7.49997 2.70672L7.79683 2.55054C7.99984 2.44633 8.23956 2.35084 8.51544 2.26403C8.79147 2.17727 9.00255 2.15337 9.14845 2.19248C9.38273 2.68293 9.40361 3.1256 9.21081 3.52049C9.62224 3.88944 9.82809 4.33652 9.82809 4.86166C9.82809 5.23056 9.77451 5.55707 9.66794 5.84139C9.56122 6.12576 9.42328 6.35347 9.25407 6.52499C9.08467 6.69649 8.8737 6.84081 8.62114 6.95792C8.36852 7.07512 8.12362 7.15972 7.88672 7.21185C7.6497 7.26397 7.38283 7.30315 7.08599 7.32919C7.35672 7.52442 7.49212 7.8326 7.49212 8.25358V9.62713C7.49212 9.70516 7.52468 9.77031 7.58986 9.82236C7.65495 9.87433 7.75776 9.88963 7.8984 9.86786C9.10683 9.53373 10.0925 8.93154 10.8555 8.06131C11.6183 7.19114 11.9999 6.21143 11.9999 5.12193C11.9996 4.21505 11.7313 3.37859 11.1951 2.61254Z" fill="white" fill-opacity="0.35"/>
</svg>
