<svg width="12" height="12" viewBox="0 0 12 12" fill="none" xmlns="http://www.w3.org/2000/svg">
<g opacity="0.35">
<g clip-path="url(#clip0)">
<path d="M6.00197 2.91901C4.30047 2.91901 2.92297 4.29801 2.92297 5.99801C2.92297 7.69951 4.30197 9.07701 6.00197 9.07701C7.70347 9.07701 9.08097 7.69801 9.08097 5.99801C9.08097 4.29651 7.70197 2.91901 6.00197 2.91901ZM6.00197 7.99651C4.89747 7.99651 4.00347 7.10201 4.00347 5.99801C4.00347 4.89401 4.89797 3.99951 6.00197 3.99951C7.10597 3.99951 8.00047 4.89401 8.00047 5.99801C8.00097 7.10201 7.10647 7.99651 6.00197 7.99651Z" fill="white"/>
<path d="M8.47363 0.0389751C7.36963 -0.0125249 4.63513 -0.0100249 3.53013 0.0389751C2.55913 0.0844751 1.70263 0.318975 1.01213 1.00947C-0.141875 2.16347 0.00562535 3.71848 0.00562535 5.99897C0.00562535 8.33297 -0.124375 9.85197 1.01213 10.9885C2.17063 12.1465 3.74813 11.995 6.00163 11.995C8.31363 11.995 9.11163 11.9965 9.92913 11.68C11.0406 11.2485 11.8796 10.255 11.9616 8.47047C12.0136 7.36597 12.0106 4.63197 11.9616 3.52697C11.8626 1.42048 10.7321 0.142975 8.47363 0.0389751ZM10.2211 10.225C9.46463 10.9815 8.41513 10.914 5.98713 10.914C3.48713 10.914 2.48463 10.951 1.75313 10.2175C0.910626 9.37897 1.06313 8.03247 1.06313 5.99097C1.06313 3.22847 0.779626 1.23897 3.55213 1.09697C4.18913 1.07447 4.37663 1.06697 5.98013 1.06697L6.00263 1.08197C8.66713 1.08197 10.7576 0.802975 10.8831 3.57497C10.9116 4.20747 10.9181 4.39747 10.9181 5.99847C10.9176 8.46947 10.9646 9.47797 10.2211 10.225Z" fill="white"/>
<path d="M9.20302 3.517C9.60039 3.517 9.92252 3.19487 9.92252 2.7975C9.92252 2.40013 9.60039 2.078 9.20302 2.078C8.80565 2.078 8.48352 2.40013 8.48352 2.7975C8.48352 3.19487 8.80565 3.517 9.20302 3.517Z" fill="white"/>
</g>
</g>
<defs>
<clipPath id="clip0">
<rect width="12" height="12" fill="white"/>
</clipPath>
</defs>
</svg>
