<svg xmlns="http://www.w3.org/2000/svg" width="12" height="12" fill="none" viewBox="0 0 12 12"><g opacity=".35"><g clip-path="url(#clip0)"><path fill="#fff" d="M11.997 12V11.9995H12V7.5985C12 5.4455 11.5365 3.787 9.01951 3.787C7.80951 3.787 6.99751 4.451 6.66601 5.0805H6.63101V3.988H4.24451V11.9995H6.72951V8.0325C6.72951 6.988 6.92751 5.978 8.22101 5.978C9.49551 5.978 9.51451 7.17 9.51451 8.0995V12H11.997Z"/><path fill="#fff" d="M0.197998 3.98849H2.686V12H0.197998V3.98849Z"/><path fill="#fff" d="M1.441 0C0.6455 0 0 0.6455 0 1.441C0 2.2365 0.6455 2.8955 1.441 2.8955C2.2365 2.8955 2.882 2.2365 2.882 1.441C2.8815 0.6455 2.236 0 1.441 0V0Z"/></g></g><defs><clipPath id="clip0"><rect width="12" height="12" fill="#fff"/></clipPath></defs></svg>