<svg xmlns="http://www.w3.org/2000/svg" width="11" height="9" fill="none" viewBox="0 0 11 9"><path fill="#fff" fill-opacity=".35" d="M10.1223 1.1693L11 0.329635V0.145844H7.95942L5.79242 5.53951L3.32704 0.145844H0.138875V0.329635L1.16417 1.56393C1.26408 1.65514 1.31633 1.78851 1.30304 1.9228V6.77334C1.33467 6.94797 1.27783 7.12764 1.155 7.25459L0 8.65434V8.83584H3.27479V8.65205L2.11979 7.25459C1.99467 7.12718 1.93554 6.95072 1.96075 6.77334V2.57776L4.83542 8.83814H5.16954L7.64133 2.57776V7.56489C7.64133 7.69643 7.64133 7.72347 7.55517 7.80964L6.666 8.66993V8.85418H10.9798V8.67039L10.1228 7.83118C10.0476 7.77434 10.0086 7.67901 10.0247 7.58643V1.41405C10.0086 1.32101 10.0471 1.22568 10.1223 1.1693Z"/></svg>